<svg width="0" height="0" class="hidden">

  <symbol fill="none" xmlns="http://www.w3.org/2000/svg" viewBox="0 0 100 36" id="first-slider-1">
    <path d="M61.1624 0.5H63.1155C63.3983 0.527006 63.6822 0.54321 63.9661 0.566975C63.4747 2.59136 62.8481 4.57685 62.2752 6.57747C61.5867 8.90324 60.8992 11.2279 60.1745 13.5418C60.9363 13.1562 61.7188 12.8148 62.5271 12.5491C63.4375 12.2531 64.3676 11.8934 65.338 11.9992C65.6064 11.9776 65.852 12.1721 65.9388 12.4335C66.2412 13.1832 66.0234 13.9966 65.9862 14.7722C66.747 14.5897 67.1579 13.8443 67.6833 13.3171C68.5019 12.5696 69.5352 12.0781 70.6098 11.9128C71.3634 11.8448 72.1985 11.8588 72.8406 12.3276C72.9954 12.5588 72.9438 12.9228 72.7786 13.1421C72.2491 13.3971 71.6194 13.3431 71.1136 13.665C70.9329 13.8421 70.9092 14.123 70.8266 14.3542C70.2051 16.5255 69.5476 18.6881 69.0077 20.8832C68.8673 21.3066 69.0211 21.8932 69.4805 22.0002C69.9688 22.0196 70.4746 22.0693 70.9546 21.9472C71.3541 21.5951 71.5234 21.0495 71.7391 20.5688C72.5402 18.2884 73.0181 15.9043 73.5621 13.5472C73.6271 13.2804 73.6736 13.0093 73.7087 12.737C73.5239 12.6031 73.334 12.454 73.2917 12.2077C73.8522 11.861 74.5417 11.7735 75.1683 11.9463C75.6184 12.1159 76.0076 12.4173 76.3885 12.7144C76.6734 12.9272 76.7694 13.3377 76.6971 13.6844C76.4225 15.5532 75.766 17.3324 75.4357 19.1883C75.3738 19.5113 75.766 19.4994 75.9715 19.4864C76.9263 19.3827 77.8223 18.9333 78.6038 18.3662C78.8969 18.1836 79.0001 17.8293 79.0982 17.5106C79.4977 16.0912 79.8094 14.648 80.1666 13.2167C80.2688 12.8019 80.3927 12.3924 80.564 12.0035C81.5561 11.8437 82.5863 11.8177 83.5752 12.0133C83.5659 12.5988 83.2542 13.1 83.1034 13.6477C83.858 13.5029 84.5135 13.0654 85.2155 12.7684C86.064 12.3978 86.9507 11.9625 87.8953 12.0802C88.3722 12.0997 88.8677 12.4259 88.9616 12.9423C89.1588 13.6866 88.7841 14.392 88.6674 15.1103C89.2228 15.0747 89.8091 14.837 90.1549 14.3639C90.4729 13.6531 90.5844 12.817 91.1026 12.2185C91.2636 12.0133 91.5289 11.9971 91.7611 11.9582C92.9266 11.7961 94.1044 11.7627 95.2792 11.7681C96.6067 11.7648 97.9393 11.7637 99.2596 11.9355C99.5239 11.9722 99.8315 12.0792 99.9079 12.3838C100.068 12.9261 100.001 13.5159 99.849 14.0528C99.4816 15.4193 99.1708 16.8052 98.7321 18.1502C98.665 18.2863 98.6392 18.5142 98.4596 18.5304C97.5099 18.6784 96.5468 18.6784 95.5888 18.6914C94.6484 18.7097 93.7049 18.6103 92.7687 18.7281C92.3661 19.5858 92.0636 20.504 91.947 21.4546C91.9212 21.8079 91.9242 22.3026 92.2979 22.4603C93.069 22.684 93.9103 22.5576 94.6185 22.1784C95.1367 21.9094 95.5228 21.4427 95.9078 21.0042C96.5478 20.9977 97.1899 20.9502 97.8289 21.0182C97.7164 21.6998 97.4294 22.335 97.0846 22.9194C96.937 23.1441 96.7873 23.385 96.5612 23.5287C96.0028 23.6454 95.4299 23.6238 94.8642 23.6443C93.0381 23.6573 91.2058 23.6832 89.3869 23.4931C88.973 23.4682 88.5291 23.2835 88.3567 22.859C88.1399 22.267 88.239 21.6113 88.3495 21.0052C88.7294 19.4799 89.357 18.0346 89.7214 16.5039C89.7658 16.3127 89.7833 16.116 89.8019 15.9205C89.1939 16.2403 88.6148 16.6411 88.0831 17.0818C87.6929 18.1426 87.4235 19.252 87.0767 20.3312C85.9164 24.1974 84.7633 28.0668 83.6051 31.9341C83.5401 32.1242 83.5411 32.3273 83.5473 32.5272C83.7321 32.5887 83.9251 32.6968 84.1244 32.6222C84.3824 32.5887 84.4836 32.3154 84.5961 32.1091C84.7747 31.771 84.9037 31.4069 85.0514 31.0537C85.5231 30.9403 86.0289 31.0332 86.5141 31.0137C86.4553 31.4804 86.223 31.8909 86.0227 32.3025C85.5985 33.1062 85.1556 33.9012 84.6529 34.6542C84.5104 34.8594 84.3742 35.0787 84.178 35.2321C83.7868 35.4201 83.345 35.4233 82.928 35.5H81.1927C80.5919 35.4438 79.988 35.4071 79.3965 35.2753C79.444 34.7049 79.6154 34.1583 79.7599 33.6096C81.2722 28.2105 83.0074 22.8849 84.5682 17.502C84.7004 16.9208 84.9595 16.3591 84.944 15.7509C84.5125 15.6267 84.0769 15.7769 83.664 15.9043C83.2232 16.0653 82.7772 16.236 82.3829 16.5028C82.2043 16.6162 82.1476 16.8409 82.0753 17.031C81.5106 18.9603 81.0812 20.9318 80.5021 22.8568C80.3989 23.0793 80.3648 23.4444 80.0716 23.4704C79.1839 23.6594 78.2383 23.6994 77.365 23.4164C77.4569 22.2432 77.9493 21.1651 78.2445 20.0417C77.2153 20.7071 76.0179 21.0701 74.8112 21.1176C74.4808 21.7787 74.4065 22.7153 73.6726 23.0426C72.8168 23.4639 71.8403 23.4034 70.9195 23.4736C69.6457 23.5849 68.3718 23.4628 67.097 23.439C66.8461 23.4261 66.5323 23.4282 66.394 23.1647C66.0554 22.5954 65.6817 21.9505 65.8015 21.2505C65.946 20.2231 66.2649 19.2347 66.5106 18.2312C66.7037 17.4404 66.9679 16.6594 67.0257 15.8406C66.5788 16.3062 66.0482 16.7177 65.3947 16.7653C64.5803 18.9431 64.1539 21.258 63.3467 23.439C62.1761 23.6076 60.9725 23.6184 59.806 23.4174C59.8235 22.6278 60.063 21.8716 60.2571 21.1154C60.6556 19.5631 61.1263 18.0313 61.5041 16.4736C61.6311 15.967 61.7673 15.456 61.7622 14.9289C61.1903 14.9731 60.6514 15.2022 60.1528 15.4841C59.8101 15.6894 59.4488 15.941 59.3157 16.3537C58.8036 17.798 58.4847 19.306 58.0645 20.7806C57.8354 21.5681 57.6568 22.3761 57.3296 23.1279C57.2397 23.412 56.9208 23.4239 56.6833 23.4585C55.8183 23.5568 54.9336 23.5914 54.0748 23.4207C54.1821 22.3275 54.7282 21.3369 54.816 20.2394C53.921 20.5969 53.0394 21.1241 52.0495 21.0798C51.8358 21.7571 51.6376 22.4927 51.1142 22.9864C50.6311 23.4326 49.955 23.4931 49.3418 23.5287C48.2342 23.5503 47.1286 23.4617 46.022 23.4563C45.9074 23.7156 45.8042 23.9802 45.7268 24.2546C44.9237 26.9444 44.2165 29.6634 43.4496 32.3651C43.1574 33.319 42.9148 34.2901 42.5577 35.2213C41.3757 35.3855 40.1721 35.3606 38.9829 35.3012C39.1171 34.1907 39.4918 33.1332 39.7695 32.0573C41.1228 27.2804 42.664 22.5651 44.0338 17.7937C42.3368 19.6117 40.5313 21.3488 38.4802 22.7239C37.9331 23.0588 37.3344 23.4682 36.6696 23.3548C36.3176 23.2792 35.8603 23.1074 35.8696 22.6515C35.8675 21.8003 36.1968 21.002 36.429 20.2005C35.5702 20.6455 34.6597 21.1079 33.677 21.0776C33.422 21.8856 33.1454 22.8309 32.3474 23.223C31.4917 23.6022 30.5317 23.5006 29.6263 23.4736C28.9347 23.4736 28.2431 23.4131 27.5525 23.4488C27.3667 23.6162 27.3254 23.8927 27.2335 24.1196C26.0887 27.7914 25.2061 31.5463 24.0995 35.2299C23.2304 35.3682 22.3467 35.325 21.4714 35.3444C21.1121 35.3261 20.7395 35.3779 20.3916 35.271C20.372 34.8886 20.5268 34.5256 20.6115 34.1605C21.5643 30.8085 22.6574 27.5029 23.6815 24.1747C23.8652 23.5211 24.082 22.8773 24.2368 22.214C21.6458 23.0761 19.0249 23.9068 16.3151 24.2417C14.1267 24.5258 11.8392 24.5052 9.74676 23.7005C8.68042 23.2889 7.71317 22.6213 6.876 21.823C5.30074 20.0665 4.81144 17.6068 4.47286 15.3026C4.3686 14.7852 4.42331 14.2062 4.1673 13.7373C3.71104 13.5094 3.17735 13.5688 2.68392 13.5526C1.78894 13.5645 0.894984 13.5181 0 13.5353V13.2934C0.139357 12.8397 0.29007 12.373 0.609043 12.0198C1.4039 12.0295 2.19875 11.996 2.9936 12.01C3.49839 11.9917 4.04446 12.0846 4.50279 11.8048C4.82486 11.6503 4.89402 11.2571 5.02719 10.9525C5.80862 9.04259 6.78206 7.19753 8.09099 5.62361C9.26468 4.14475 10.7636 2.93812 12.4616 2.19491C14.2568 1.39769 16.2429 1.25185 18.1701 1.33179C21.3299 1.6213 24.3256 3.0537 26.8351 5.0446C26.4676 5.55556 25.9814 5.95309 25.4879 6.32037C25.2784 6.45864 25.0575 6.6196 24.8005 6.62284C24.625 6.57855 24.4794 6.45972 24.3256 6.3679C23.4977 5.80509 22.578 5.41404 21.7387 4.87068C19.766 3.65864 17.3309 3.11852 15.0991 3.78503C13.8501 4.12531 12.8632 5.08349 12.0601 6.09784C10.938 7.55833 10.0833 9.24676 9.57333 11.0443C9.4123 11.4569 9.69824 11.983 10.1256 12.0079C15.0372 12.0208 19.9498 11.9927 24.8614 12.0219C24.5723 12.5415 24.274 13.059 23.9261 13.5397C19.3201 13.5289 14.7151 13.5386 10.1091 13.5343C9.68895 13.4954 9.40301 13.908 9.22443 14.2515C8.88171 15.1525 9.04894 16.1971 9.50108 17.0235C10.4673 18.9679 12.12 20.5397 14.0947 21.2904C16.6073 22.2735 19.4264 22.1449 21.9679 21.3434C22.9114 21.0647 23.8126 20.6466 24.6724 20.1573C24.9863 19.9963 24.9563 19.5772 25.0585 19.279C25.5798 17.3076 26.1765 15.3566 26.8309 13.4295C27.0106 12.9855 27.1117 12.4907 27.3977 12.1051C27.6671 11.9571 27.9871 12.0046 28.2813 11.9755C29.1071 11.9733 29.9422 11.9603 30.7567 12.1256C30.7629 12.7133 30.5368 13.262 30.3964 13.8216C29.6852 16.344 28.8666 18.8329 28.1863 21.3661C28.111 21.6372 28.0635 21.917 28.0449 22.2C28.5755 22.2583 29.1505 22.3836 29.6563 22.1427C29.8844 21.8014 29.9608 21.379 30.0971 20.9934C30.8764 18.3219 31.5288 15.6116 32.2091 12.912C32.335 12.4918 32.0316 12.1559 31.7404 11.9225C32.4052 11.5088 33.2156 11.5542 33.9619 11.5336C34.2871 11.5542 34.6649 11.4569 34.9405 11.6935C35.3224 11.9938 35.5454 12.5242 35.4257 13.0211C35.116 14.9721 34.5534 16.8668 34.1157 18.7886C34.0889 18.9431 34.0806 19.0997 34.0724 19.2574C34.3624 19.3568 34.667 19.4961 34.9766 19.4054C35.7126 19.2466 36.2339 18.6244 36.6902 18.0454C37.0722 17.596 37.1083 16.9684 37.2745 16.4174C37.6306 15.1125 37.9599 13.7957 38.4399 12.5329C38.5401 12.3406 38.5979 12.0306 38.8528 12.0176C39.7922 11.8361 40.7564 11.8804 41.706 11.9215C41.8454 11.9636 42.0653 11.916 42.1375 12.0802C42.0766 12.7651 41.8547 13.4208 41.6782 14.0798C41.3551 15.1924 41.0361 16.3073 40.7378 17.4286C40.6418 17.7753 40.5881 18.134 40.5736 18.4958C40.7915 18.3921 40.9989 18.2657 41.1889 18.1134C42.2604 17.26 43.2834 16.3418 44.3229 15.4452C44.5046 15.281 44.7203 15.1233 44.7977 14.8716C45.0816 14.0647 45.2509 13.2177 45.5688 12.4227C45.6349 12.2639 45.7226 12.0867 45.9023 12.0489C46.4514 11.8998 47.0243 11.902 47.589 11.8955C48.1671 11.8998 48.7544 11.8707 49.3212 12.0219C49.2757 12.3222 49.2179 12.6193 49.1333 12.9099C48.4324 15.3912 47.6117 17.8326 46.8747 20.302C46.6992 20.9264 46.4824 21.5432 46.4153 22.1935C46.9583 22.2778 47.524 22.3458 48.0566 22.1622C48.4251 21.3315 48.614 20.4316 48.8845 19.5642C49.4677 17.3551 50.0427 15.1417 50.5785 12.9196C50.724 12.5037 50.3968 12.1807 50.1356 11.9258C50.5341 11.6341 51.0306 11.5963 51.5003 11.5563C52.0113 11.5358 52.5284 11.5045 53.0384 11.5563C53.5958 11.7497 53.9519 12.4346 53.8116 13.0319C53.5401 14.6264 53.1251 16.1884 52.7401 17.7548C52.6224 18.2485 52.4551 18.7367 52.4459 19.2509C52.8133 19.4065 53.2283 19.5199 53.6082 19.3319C54.3659 19.0003 54.9367 18.3046 55.3527 17.5841C56.0537 15.5889 56.6627 13.5591 57.3141 11.5444C58.4372 7.91589 59.6202 4.30571 60.6628 0.651235C60.8001 0.532407 60.9952 0.54429 61.1624 0.5V0.5ZM94.0735 14.1122C93.8061 15.1028 93.2249 16.0491 93.3715 17.1164C93.4097 17.2719 93.4438 17.5247 93.644 17.5204C94.1416 17.5765 94.6422 17.5258 95.1419 17.5182C95.4288 16.7782 95.6146 16.0015 95.8149 15.2335C95.9057 14.8025 96.0657 14.3844 96.0771 13.9394C95.6621 13.746 95.1976 13.8227 94.7579 13.7946C94.5101 13.8151 94.1178 13.7611 94.0735 14.1122Z" fill="#010101"></path>
  </symbol>

  <symbol fill="none" xmlns="http://www.w3.org/2000/svg" viewBox="0 0 100 44" id="first-slider-2">
    <path d="M84.9317 40.8204H85.3723C85.5904 40.8204 85.7468 40.7918 85.8415 40.738C85.9336 40.6756 85.9779 40.5854 85.9779 40.4535C85.9779 40.3364 85.9353 40.2488 85.8415 40.1863C85.7511 40.1282 85.6086 40.0961 85.4279 40.0961H84.9317V40.8204ZM84.3982 42.3315V39.6806H85.6538C85.9666 39.6806 86.1934 39.7491 86.3359 39.8966C86.4758 40.0406 86.5488 40.2184 86.5488 40.4275C86.5488 40.6331 86.4897 40.7961 86.3698 40.9211C86.2508 41.0434 86.0726 41.1284 85.8319 41.1692C85.9414 41.2099 86.0266 41.268 86.09 41.3409C86.1543 41.4103 86.2569 41.5647 86.3968 41.7989L86.7061 42.3315H86.0396L85.8224 41.9065C85.6886 41.6497 85.5678 41.4754 85.467 41.3817C85.367 41.2889 85.2376 41.2412 85.0681 41.2412H84.9317V42.3315H84.3982ZM85.5608 38.9892C84.9499 38.9892 84.4477 39.1879 84.0662 39.5982C83.6865 39.9981 83.4962 40.4683 83.4962 40.9991C83.4962 41.5508 83.69 42.0271 84.0862 42.4183C84.4833 42.8086 84.9543 43.0064 85.5078 43.0064C86.0587 43.0064 86.5323 42.8086 86.9286 42.4183C87.3205 42.0271 87.5203 41.5508 87.5203 40.9991C87.5203 40.6183 87.4213 40.2705 87.2214 39.9521C87.0242 39.6294 86.7669 39.3865 86.4559 39.2261C86.1465 39.069 85.8441 38.9892 85.5608 38.9892ZM85.4348 38.5C86.1813 38.5 86.7948 38.7472 87.2762 39.2425C87.7593 39.737 88 40.3251 88 40.9991C88 41.6827 87.755 42.2717 87.2675 42.7609C86.7756 43.2528 86.1856 43.5 85.5009 43.5C84.8048 43.5 84.2183 43.2528 83.7291 42.7627C83.2398 42.2769 83 41.687 83 40.9991C83 40.5125 83.1277 40.0675 83.3867 39.6641C83.6422 39.259 83.9654 38.9624 84.3521 38.7785C84.7405 38.5902 85.0985 38.5 85.4348 38.5Z" fill="black"></path>
    <path d="M15 0.5L30 0.500896V18.5L15 0.5Z" fill="black"></path>
    <path d="M24.9924 12.5L25 30.5L19.6326 26.4367L16.0109 26.4402L16 16.882H19.6267L24.9924 12.5Z" fill="black"></path>
    <path d="M30 24.5V43.4888L15 43.5L30 24.5Z" fill="black"></path>
    <path d="M33 21.5V43.5L49 43.4876L33 21.5Z" fill="black"></path>
    <path d="M45 0.50897L60.9852 0.5L61 21.5L45 0.50897Z" fill="black"></path>
    <path d="M65 0.510601L65.0325 43.5L81 43.4867L80.9728 0.5L65 0.510601Z" fill="black"></path>
    <path d="M83 0.503513L83.0184 25.4959C83.0184 25.4959 83.4844 25.5038 87.92 25.4977C95.8101 25.4959 100.008 19.8871 100 13.0418C99.9939 6.18951 95.9614 0.494738 87.906 0.500004C83.5762 0.506147 83 0.503513 83 0.503513Z" fill="black"></path>
    <path d="M50.5116 43.5L53.1831 43.4973C63.0511 43.4894 64.5547 32.2304 61.738 28.0573C59.9433 25.4201 45.5942 6.66419 43.9865 4.45304C42.3177 2.15792 44.4385 0.5 44.4385 0.5L41.8203 0.507069C31.9462 0.512371 30.4434 11.8412 33.2654 16.0117C35.054 18.6523 49.2256 37.547 51.0133 39.623C53.0275 41.9578 50.5116 43.5 50.5116 43.5Z" fill="black"></path>
    <path d="M15 43.4876V0.5L0 0.514137L0.0283132 43.5L15 43.4876Z" fill="black"></path>
  </symbol>

  <symbol fill="none" xmlns="http://www.w3.org/2000/svg" viewBox="0 0 114 64" id="first-slider-3">
    <path d="M30.4998 16C32.4326 16 34 14.4324 34 12.4998C34 10.5672 32.4326 9 30.4998 9C28.567 9 27 10.5676 27 12.4998C27 14.4321 28.567 16 30.4998 16Z" fill="black"></path>
    <path d="M25.0801 19.444C25.0801 19.444 25.0801 14.7599 25.0801 12.3598C25.0801 9.95331 22.74 7.76435 20.9297 8.31508C19.1302 8.8723 11.5698 11.2208 11.2597 11.3617C10.9505 11.508 7 13.0572 7 17.4539L7.05968 46.0225C7.05968 46.0225 7.23002 48.8962 10.1699 48.8386C10.1699 48.8386 11.03 48.8386 12.4097 48.0771C12.4097 48.0771 15.81 46.1828 16.04 46.0805C16.2597 45.9847 18.1102 45.3828 18.1699 47.9554V64L23.7503 62.1821C23.7503 62.1821 23.7503 48.4164 23.7503 47.9554C23.7503 46.9893 24.4407 42.2079 26.8602 40.2311C27.0101 40.1029 28.1806 39.3353 29.22 40.7559C30.2698 42.1769 31.1802 42.3941 31.1802 42.3941C31.1802 42.3941 32.3098 42.8995 33.3107 41.1655C33.3704 41.0441 35.1307 38.0807 35.2105 37.9463C35.2903 37.812 35.5505 37.415 36.3002 37.4795C36.3002 37.4795 38.1508 37.3577 37.86 39.9944C37.86 39.9944 46.4203 37.3513 47.1301 36.9478C47.2397 36.9032 50.5099 35.5722 52.4802 32.5C52.4802 32.5 53.07 31.6168 53.8096 31.6809C53.9397 31.6809 55.7601 31.7962 55.2403 34.2538C55.2403 34.2538 63.54 31.6748 64.0001 31.4446C64.9802 31.035 67.57 29.9404 67.5107 26.8812C67.5405 25.9724 67.3004 24.3856 66.0102 23.2463C65.9405 23.1757 60.3 18.9516 60.2501 18.9137C59.7599 18.4912 59.5101 17.5309 60.3098 16.5137C60.3098 16.5137 60.9398 15.5793 61.8696 15.637C61.8696 15.637 62.57 15.6049 63.6504 17.045C63.7898 17.1858 64.5899 18.274 65.1502 18.3889C65.1502 18.3889 65.6099 18.5424 66.1802 17.9794C67.5804 16.7442 68.3104 16.6931 68.3104 16.6931C68.3104 16.6931 70.3302 16.1045 70.3302 18.4466C70.3302 18.4466 70.3302 22.9077 70.3302 23.368C70.3302 24.4436 71.72 27.7391 74.8802 27.5795C74.8802 27.5795 75.97 27.4643 77.0104 27.17L80.4003 26.0631C80.4003 26.0631 84.67 24.7577 86.1601 21.961C86.1601 21.961 86.8699 20.5591 87.8899 20.5591C87.8899 20.5591 89.67 20.3228 89.5 23.0748L94.3401 21.4362V9.54989C94.3401 9.54989 94.2006 8.14219 95.8301 8.14219C97.4403 8.14219 97.39 9.42815 97.39 9.42815C97.39 9.42815 97.39 33.5108 97.39 34.0226C97.39 34.7139 98.1001 36.8639 100.44 36.8319C100.44 36.8319 107 36.7746 107 31.0913C107 30.6691 107 28.9279 107 28.9279L105.33 29.5107V31.5646C105.33 31.5646 105.441 32.9474 103.89 33.0238C103.75 33.0559 102.23 32.9982 102.28 31.5005V1.40959C102.28 1.40959 102.16 0.00154597 100.78 0.00154597C100.78 0.00154597 99.5198 -0.113716 98.5397 1.64625C97.5596 3.39973 97.2099 4.74366 95.8902 4.74366C95.8902 4.74366 94.3199 4.93565 94.3397 3.51465V1.99169L89.38 3.6364C89.38 3.6364 89.38 9.21706 89.38 9.42815C89.38 10.8682 88.3201 18.0104 86.4501 18.0356C86.3197 18.0551 84.56 18.3047 84.4896 16.5127C84.4896 16.5127 84.4896 10.3881 84.4896 9.78007C84.5396 8.87162 83.8401 6.1575 81.6097 6.44599L79.6003 6.85555C79.6003 6.85555 79.6003 20.9796 79.6003 21.4345C79.6003 21.8823 79.4397 24.0327 77.0597 24.1282C76.8498 24.1606 74.5298 24.0644 74.5298 21.7861V12.3022C74.5298 12.3022 74.4202 10.5999 76.0897 10.4846L76.1396 8.02693C76.1396 8.02693 71.0793 9.19831 68.7198 13.5312C68.4401 13.8381 67.85 14.1133 67.4496 14.1133C67.2099 14.1133 66.0702 14.0427 66.0099 12.8843C66.0099 12.6091 66.0099 11.3037 66.0099 11.3037L57.6602 14.113C57.6602 14.113 54.38 15.1694 54.38 18.5676C54.38 18.5676 54.38 20.9097 55.8201 22.017L61.6399 26.4713C61.6399 26.4713 62.63 27.1884 62.1499 28.4045C62.0892 28.6091 61.4095 30.0106 60.0194 30.0427C59.7491 30.0744 58.8693 30.0427 58.3493 28.6923C58.3493 28.6923 57.8896 26.9384 56.3995 27.4633C56.3995 27.4633 53.5994 28.4617 53.3999 28.5194C53.2104 28.577 51.5598 28.8713 51.5598 26.8808C51.5598 26.8808 51.5598 20.8074 51.5598 20.3214C51.5598 19.8345 50.9696 17.0573 48.6799 17.1599C48.6799 17.1599 47.3594 17.2752 46.2104 17.8061V20.6734C46.2104 20.6734 47.7601 20.4367 47.7601 22.4848V32.3851C47.7601 32.3851 47.8299 34.8554 45.29 34.9004C43.1595 34.8748 42.8101 32.8076 42.8101 32.558C42.7896 31.1568 42.8698 1.00071 42.8698 1.00071L37.8004 2.99052L37.86 24.5957C37.86 24.5957 37.5502 31.61 35.6098 34.3173C35.0506 35.0917 33.08 35.0917 32.91 33.3761V22.2536L27.9603 23.8345C27.9603 23.8345 27.9603 27.5847 27.9603 28.34C27.9603 29.0953 27.2699 38.0418 24.7401 37.9139C24.4199 37.9207 23.7399 37.5617 23.7295 36.0261L23.76 25.1273L18.9199 26.8808C18.9199 26.8808 18.87 32.8707 18.8596 33.2039C18.7097 35.1241 18.9793 43.8018 13.3298 43.8018C13.3298 43.8018 11.9497 43.8595 11.9497 42.1633V17.9211C11.9497 17.9211 12.1096 15.182 14.1996 14.2282C14.1996 14.2282 16.3301 13.4538 16.7898 13.2939C17.2397 13.1339 18.9796 13.2939 18.9796 15.2267V21.3769L25.0801 19.444Z" fill="black"></path>
    <path d="M103 1.49692C103 0.590079 103.707 0 104.5 0C105.293 0 106 0.590079 106 1.49692C106 2.41576 105.293 3 104.5 3C103.707 3 103 2.41576 103 1.49692ZM104.5 0.316438C103.877 0.316438 103.387 0.809575 103.387 1.49724C103.387 2.19075 103.878 2.68324 104.5 2.68324C105.113 2.68324 105.614 2.19042 105.614 1.49724C105.614 0.809251 105.113 0.316438 104.5 0.316438ZM104.236 2.33665H103.915V0.657192H104.538C104.944 0.657192 105.17 0.790771 105.17 1.15584C105.17 1.45996 104.991 1.58154 104.774 1.60618L105.17 2.33665H104.811L104.444 1.6185H104.236V2.33665ZM104.236 1.36269H104.519C104.755 1.36269 104.84 1.28423 104.84 1.12569C104.84 0.96747 104.736 0.918837 104.501 0.918837H104.236V1.36269H104.236Z" fill="black"></path>
  </symbol>

  <symbol fill="none" xmlns="http://www.w3.org/2000/svg" viewBox="0 0 114 36" id="first-slider-4">
    <path d="M97.2167 27.5698C96.0667 27.5698 95.1333 26.641 95.1333 25.4966V1H95.1167H87.9167H77.7333C69.3167 1 62.3167 7.07025 60.9167 15.0478V14.5668C60.9167 7.07024 54.8167 1 47.2833 1C39.75 1 33.65 7.07024 33.65 14.5668V27.321H17.2167C15.7 27.321 14.4833 26.1102 14.4833 24.601C14.4833 23.0917 15.7 21.881 17.2167 21.881H30.1V13.9034H18.35C16.8167 13.9034 15.5833 12.6595 15.5833 11.1502C15.5833 9.64098 16.8167 8.38049 18.35 8.38049H30.1167V1H18.3333C12.8 1 8.31667 5.46146 8.31667 10.9678C8.31667 13.3893 9.18333 15.6117 10.6333 17.3366C8.41667 19.161 7 21.9307 7 25.0156C7 30.5219 11.4833 34.9834 17.0167 34.9834C17.3 34.9834 40.8167 34.9834 40.8167 34.9834V14.6166C40.8167 11.0673 43.7167 8.18146 47.2833 8.18146C50.85 8.18146 53.75 11.0673 53.75 14.6166V35H60.9167V20.9522C62.3 28.8137 69.1 34.801 77.35 35H77.3667C77.5 35 77.6167 35 77.75 35C80.2167 35 83.35 34.1873 84.6667 32.9766V14.6498H77.35V27.5698C71.55 27.5698 67.75 23.1912 67.75 18C67.75 12.5102 72.2333 8.04878 77.75 8.04878H87.9333V25.5132C87.9333 30.7541 92.2 35 97.4667 35H107V27.5698H97.2167Z" fill="black"></path>
  </symbol>

  <symbol fill="none" xmlns="http://www.w3.org/2000/svg" viewBox="0 0 114 36" id="first-slider-5">
    <path d="M95.7581 25.4997C97.2761 25.4961 98.7759 24.9444 99.5489 23.7663C99.5603 24.2334 99.776 24.9233 99.843 25.1813H102C101.952 24.52 101.874 23.8301 101.869 23.1649V10.5H99.6143V16.1603C98.9426 15.3183 97.4231 14.6922 96.1828 14.7097C92.5211 14.6922 90.668 17.3454 90.6599 20.0871C90.668 22.7052 92.2954 25.4963 95.7581 25.4997ZM56.6405 14.71C56.5504 14.703 50.9133 14.7666 50.4967 20.1226C50.2171 23.2995 52.7762 25.5071 56.6405 25.4997C60.472 25.5069 62.7857 23.3101 62.7842 20.1226C62.7857 17.0166 60.2366 14.8727 56.6405 14.71ZM63.6338 10.5H66.2809V25.1813H63.6338V10.5ZM81.5424 19.0613C81.5997 17.5896 83.8839 16.5072 85.0065 16.5142C86.7269 16.5072 87.119 17.9611 87.1634 19.0613V25.1813H89.3856V18.566C89.3839 18.2159 89.3447 17.5685 89.1568 16.9386C88.7269 15.4459 86.5112 14.4695 85.3332 14.4621C83.5505 14.4693 82.3052 15.3077 81.5752 16.231L81.5424 16.1958V14.6392H79.2548V25.1815H81.5424V19.0613ZM75.4966 23.8371C75.5014 24.2651 75.5504 24.7429 75.6272 25.1813H77.8167C77.7756 24.8914 77.6777 24.5943 77.6532 24.0847V18.5307C77.6579 15.4459 75.2755 14.703 72.9147 14.71C71.6385 14.703 70.3835 14.8623 69.4178 15.3468C68.4814 15.8173 67.8539 16.6135 67.8166 17.8939H70.3003C70.256 17.42 71.0893 16.4225 72.784 16.4081C74.0404 16.4225 75.2363 16.9955 75.2348 17.6815V18.6368C73.8248 18.5979 71.207 18.6509 69.8102 19.2028C67.658 19.9779 67.2756 21.6971 67.2611 22.4223C67.2756 24.4141 68.9325 25.5073 71.1499 25.4999C72.7366 25.5071 74.6974 25.0188 75.4966 23.8371ZM40.268 18.9197H44.7451C45.9426 18.948 46.7368 20.4446 46.8365 21.2547C46.9917 22.5672 47.1582 23.8833 47.4573 25.1815H50.2352C49.5504 24.382 49.4229 22.6524 49.2548 21.7147C48.9523 19.7019 49.1875 18.6087 47.3919 18.2478V18.2125C49.4916 17.813 49.8835 16.2528 49.8756 14.3565C49.8837 11.3496 47.1092 10.5324 44.1894 10.5004H37.5882V25.1817H40.268V18.9197ZM7 10.6416H31.4444C33.9916 10.7656 35.825 12.315 35.9869 15.3466C35.9034 18.0991 34.2955 19.8925 31.4444 20.0163H16.6078V20.8653H35.8235V22.4571H15.1373V18.4244H31.4118C33.4035 18.3539 34.3742 17.3456 34.5164 15.3468C34.3152 13.1961 33.1879 12.3258 31.4118 12.2336H8.4707V25.1107H7V10.6416Z" fill="#FF8200"></path>
    <path d="M11.4643 22.8852V25.2852H10V13.5H31.835V17.6553H16.0525C14.1633 17.7415 12.5039 18.6011 12.4731 21.0583C12.8357 23.1359 14.1342 23.8131 16.0525 23.8881H36V25.5H16.0199C14.2708 25.4251 12.2987 24.791 11.4643 22.8852Z" fill="#FF8200"></path>
    <path d="M11 18.5C11.9073 16.9051 13.7517 16.3436 15.5782 16.2723H30V15.5H11V18.5Z" fill="white"></path>
    <path d="M107 12C107.012 11.165 106.329 10.5 105.517 10.5C104.664 10.5 103.981 11.165 104 12C103.992 12.8114 104.664 13.4864 105.517 13.5C106.329 13.4762 107.012 12.8114 107 12Z" fill="#FF8200"></path>
    <path d="M96.2932 16.4213C98.2292 16.4351 99.6284 18.6098 99.6432 19.9606C99.6284 21.3253 98.3671 23.3571 96.4574 23.3638C94.1797 23.3571 92.9184 21.4684 92.9102 19.9606C92.9184 18.4565 94.0416 16.4351 96.2932 16.4213ZM56.4544 23.5C54.2653 23.5103 52.8759 21.5298 52.8745 19.9948C52.8759 18.4055 54.1669 16.5168 56.4544 16.5235V16.4894V16.5235C58.7089 16.5168 59.9996 18.4057 60.0015 19.9948C59.9996 21.5298 58.6004 23.5103 56.4544 23.5ZM75.142 20.5393C75.0746 22.5711 73.7543 23.2959 71.792 23.2959C70.7983 23.2959 69.803 23.153 69.8541 21.7985C69.8623 20.7847 71.7342 19.8962 75.1418 20.2672V20.5393H75.142ZM40 12.8141H44.5324C46.1465 12.8312 47.0924 13.6478 47.0943 14.89C47.0924 16.1494 46.1467 16.8232 44.5324 16.8299H40V12.8141ZM107 11.8273C107.008 12.5454 106.436 13.1377 105.752 13.1546C105.028 13.1377 104.456 12.5456 104.471 11.8273C104.456 11.0958 105.028 10.5035 105.719 10.5C106.437 10.5035 107.008 11.0955 107 11.8273Z" fill="white"></path>
    <path d="M105 13.5H105.154V12.6427H105.564C105.824 12.6389 105.755 12.9938 105.769 13.2552L105.795 13.5H106C105.924 13.3123 105.947 13.2633 105.923 13.0102C105.917 12.6635 105.909 12.6389 105.795 12.5204C105.909 12.3573 105.955 12.2717 105.949 12.0305C105.932 11.5734 105.747 11.5122 105.564 11.5H105V13.5Z" fill="#FF8200"></path>
    <path d="M105.639 11.5023C105.781 11.4851 106.02 11.5556 105.999 12.0304C105.961 12.4005 105.793 12.4709 105.639 12.5H105V11.5023H105.639Z" fill="white"></path>
  </symbol>

  <symbol fill="none" xmlns="http://www.w3.org/2000/svg" viewBox="0 0 114 66" id="first-slider-6">
    <path d="M17.0326 31.0535C17.5554 31.7031 18.8318 32.9985 17.7845 34.001C16.6835 35.0472 12.9221 37.4343 11.0172 37.3852C9.03001 37.4343 6.65072 34.827 7.04279 32.4727C7.35072 31.0899 9.02822 29.1795 9.83564 28.3262C10.6413 27.4074 19.9723 17.719 25.626 14.3512C27.1549 13.4197 30.6477 12.6682 31.6413 13.1504C32.6618 13.6253 34.205 15.0571 34.2194 18.3903C34.2042 20.6464 34.2042 22.9025 34.2194 25.1586C34.205 26.041 34.5416 26.8598 35.7232 25.9228C36.3552 25.4279 37.8322 25.3587 38.8383 25.4861C39.8444 25.6317 40.4478 26.3831 39.5902 27.0144C38.704 27.6112 35.1467 30.6824 33.8971 31.9269C34.0045 39.3465 30.2431 59.6094 29.6004 61.9474C29.0973 64.0125 27.6938 65.0004 25.9482 65.659C24.2027 66.2267 21.1807 66.365 21.6515 63.8032C22.1206 61.3142 26.6858 43.0981 27.2372 37.7108C27.3572 37.1614 26.9544 36.9558 26.4853 37.4925C26.0145 38.0474 23.6638 40.1616 21.6515 40.3308C19.6375 40.5728 18.182 39.1045 17.8919 38.6933C17.7577 38.4568 17.6234 37.911 18.2142 37.6017C18.8318 37.3651 24.9403 33.6808 28.8485 30.2876C29.0347 27.7458 29.3498 21.3997 29.3856 19.4802C29.5055 18.0574 28.3651 18.8743 27.7743 19.371C27.1567 19.8295 19.2347 26.585 16.8178 29.4142C16.2789 29.9983 16.5474 30.7479 17.0326 31.0535Z" fill="black"></path>
    <path d="M43.0131 30.8757C43.462 31.144 44.4105 30.8027 44.8595 30.2188C45.3609 29.5728 46.447 28.4761 46.2714 27.9195C46.1773 27.3812 45.2939 26.9013 43.8819 27.0436C42.4428 27.1768 39.9303 27.383 36.4963 32.2991C35.517 34.2243 36.0619 36.3447 37.4739 36.3502C38.2323 36.3447 38.8442 37.2352 38.3427 37.9907C37.7581 38.7389 35.9261 41.8885 37.7997 44.0144C39.7257 46.1312 42.8501 44.4889 44.2078 42.3721C45.5654 40.2462 47.5331 36.6203 48.1178 35.6932C48.4165 35.0473 48.8926 35.3885 48.7695 35.9122C48.7568 36.3447 49.1279 38.686 49.5298 39.5254C50.0131 40.5874 51.1662 40.6221 51.4848 39.4141C51.912 38.2608 53.8815 32.6148 54.8517 31.5308C55.1359 31.2462 55.4093 31.3483 55.2862 31.7498C55.2735 32.2389 55.1034 34.8739 55.8292 36.0199C56.528 37.2681 57.5797 38.3283 59.0876 37.0053C60.5665 35.5911 61.01 34.0181 61.3684 33.1732C61.5187 32.7863 61.9984 32.6914 62.1287 33.0637C62.469 34.6312 66.8805 36.7535 68.6454 30.4359C68.7124 29.8429 69.3912 29.6367 69.6229 30.217C69.7985 30.8684 70.4104 31.6239 71.4693 31.5308C72.4468 31.4852 74.6879 29.8429 75.5966 27.4797C75.841 26.9688 76.4528 27.175 76.7913 27.4797C77.1316 27.7224 78.4205 28.5436 79.6152 28.0272C80.8643 27.5856 82.765 26.0126 84.3941 22.9907C86.0233 19.9888 88.4671 14.925 89.0644 13.4651C89.4174 12.529 90.0963 12.872 89.9333 13.5746C89.622 14.5162 88.1956 20.0235 90.4764 21.8976C92.8134 23.7881 96.6148 20.5381 97.7534 19.4888C98.9228 18.3483 105.099 12.8739 106.66 11.2771C107.474 10.4779 106.728 8.63116 105.465 9.63481C104.147 10.6841 98.2421 15.8848 96.8845 16.8611C95.5268 17.9377 93.7999 19.5509 92.7573 18.7224C92.0314 18.1093 92.3373 16.1585 92.7573 15.1093C93.1519 14.1056 94.238 11.2315 94.6037 10.4012C95.0526 9.58919 94.5765 8.28809 93.8434 8.10196C93.0831 8.01437 91.997 8.28992 91.5625 9.08736C91.2856 9.487 90.6393 9.58919 90.6936 8.86838C90.7081 8.08371 90.8439 6.06546 89.7161 5.14575C88.5359 4.1494 86.9682 4.66765 85.9147 6.24247C84.6657 8.11838 83.9868 11.4724 86.0233 11.9359C86.4994 12.0874 86.8053 12.5326 86.4578 13.2498C86.0577 13.9706 83.1035 20.3356 81.7875 22.3374C80.5257 24.3045 79.4396 25.1257 78.8549 24.6367C78.3535 24.1659 78.9979 21.7042 82.2219 18.5053C82.431 18.3405 82.57 18.1015 82.6103 17.837C82.6507 17.5725 82.5895 17.3025 82.4391 17.0819C82.2219 16.6403 81.0688 16.5381 80.2669 16.8629C79.4378 17.2899 78.9979 17.5637 78.5291 17.9578C77.9788 18.248 77.6403 18.248 77.443 17.9578C77.233 17.6312 76.9615 16.9469 79.6152 15.3301C80.0841 15.0326 80.4914 14.8958 81.353 15.0016C82.2563 15.0326 82.5278 14.6549 82.765 14.3447C83.0021 14.0399 83.6809 13.1166 83.9597 12.5928C84.1552 12.0892 83.9524 11.6111 83.1994 11.4979C82.3921 11.4724 79.8451 11.4724 76.6809 14.0162C75.0934 15.237 74.1086 17.0162 74.2914 17.9578C74.3801 18.9998 74.4815 19.9925 76.5723 20.1476C77.2638 20.164 77.2312 20.8812 76.8981 21.2425C76.6212 21.7042 75.9079 22.3538 75.4862 23.2133C75.2617 23.9286 73.8099 26.06 73.2053 27.0454C72.5138 28.2389 71.2919 28.4451 71.3589 26.717C71.4603 25.8429 71.4947 23.8246 71.4675 22.9943C71.9708 21.2918 75.7034 5.27896 76.0292 2.8483C76.3152 1.51618 75.5676 0.0782222 74.8345 0.00157973C74.0742 -0.0586393 70.8828 1.5837 69.8384 8.21327C68.7106 14.8611 68.3721 16.4341 68.4264 18.1768C65.7238 18.0071 63.6203 19.7863 62.67 22.6659C61.7196 25.5345 60.7693 28.956 60.1719 30.7662C59.5474 32.6513 59.0043 33.7462 58.3255 33.6148C57.6467 33.4724 57.9852 30.6002 58.2169 29.1257C58.5282 27.7243 58.9355 25.3976 59.1944 23.9797C59.4804 22.5253 58.8016 22.2516 58.2169 22.3374C57.5779 22.3885 54.0498 24.1659 53.0035 28.5783C52.8261 29.5728 51.74 30.0509 51.9174 28.7972C52.0133 27.4505 52.0803 26.5618 51.0485 26.6075C50.5145 26.5618 49.1623 27.3137 48.3332 29.3447C47.5331 31.2827 45.5636 35.3192 44.206 37.8849C42.8483 40.5217 41.2861 42.2334 40.5132 41.498C39.6569 40.8648 41.6264 37.4432 42.251 36.571C43.0511 36.0035 44.5463 34.8411 44.0974 34.0527C43.7317 33.1987 41.5595 33.5418 40.839 34.1622C40.2 34.8429 39.2497 35.2535 38.884 34.8192C38.4351 34.4305 39.3854 33.0619 40.1873 32.1914C41.0164 31.2827 41.764 30.3228 43.0131 30.8757Z" fill="black"></path>
    <path d="M67.5707 22.0323C66.5688 21.6933 64.8788 24.1019 64.4647 25.5632C64.0021 27.0441 63.6264 29.5865 64.6651 29.9523C65.6286 30.3894 66.8811 27.7131 67.3703 26.4214C67.883 25.1725 68.384 22.696 67.5707 22.0323Z" fill="white"></path>
    <path d="M97.0015 4.55738C96.9441 2.51093 98.5599 1.04399 100.443 1C102.359 1.04208 103.975 2.51093 104 4.55738C103.975 6.51393 102.361 7.98279 100.443 8C98.5599 7.98279 96.9441 6.51393 97.0015 4.55738Z" fill="black"></path>
    <path d="M100.45 6.99999C101.126 6.99792 101.773 6.68739 102.251 6.13626C102.729 5.58513 102.998 4.83823 103 4.05882C102.969 2.31961 101.868 1.04706 100.45 1C99.0613 1.04706 97.9598 2.31961 98.0023 4.05882C97.988 4.43953 98.0408 4.81962 98.1575 5.17613C98.2742 5.53264 98.4523 5.85817 98.6811 6.13306C98.9098 6.40796 99.1846 6.6265 99.4886 6.77551C99.7927 6.92451 100.12 7.00088 100.45 6.99999Z" fill="white"></path>
    <path d="M99.5769 6H99V2H100.5C101.431 2.01905 101.902 2.36762 101.885 3.14286C101.9 3.86667 101.448 4.17714 100.846 4.28571L102 6H101.308L100.269 4.28571H99.5769V6Z" fill="black"></path>
    <path d="M100.8 3.98573C101.418 4.02978 101.951 3.99878 102 3.49638C101.951 3.0527 101.427 2.97277 100.933 3.00702H100V3.98573H100.8Z" fill="white"></path>
  </symbol>

  <symbol fill="none" xmlns="http://www.w3.org/2000/svg" viewBox="0 0 114 60" id="first-slider-7">
    <path d="M8.38301 56.8719C12.049 49.7523 15.7253 42.6381 19.412 35.5293C24.7982 25.1548 28.2573 17.9818 28.0027 17.7145C27.841 17.5452 23.347 17.8569 18.0156 18.4074C12.6848 18.9579 7.86848 19.3168 7.31312 19.205C6.43386 19.0268 24.1922 14.7212 53.554 7.99304C58.3672 6.88997 64.6687 5.42077 67.5566 4.72837C70.4444 4.03598 75.9581 2.75632 79.8089 1.88525C83.6597 1.01368 87.3358 0.166955 87.9774 0.00278988C88.6191 -0.160858 75.4911 6.89567 58.8047 15.684C42.1184 24.4722 28.1809 31.9819 27.8311 32.3724C27.483 32.7629 26.4327 36.6018 25.4976 40.9038L23.798 48.7252L16.5046 53.6989C13.6298 55.6614 10.7523 57.62 7.87209 59.5746C6.61984 60.4177 6.65342 60.2411 8.38301 56.8714V56.8719Z" fill="black"></path>
    <path d="M33.4096 25.5567C35.6052 24.2128 39.6183 21.7621 42.3276 20.1109C45.0369 18.4592 47.5009 16.8509 47.8041 16.5372C48.5246 15.7896 47.6297 15.8052 38.6947 16.6916C31.4207 17.4129 31.2889 17.4531 30.9671 19.0711C30.7876 19.9763 30.2714 21.9787 29.8198 23.5211C29.0214 26.2485 28.7823 28 29.2082 28C29.3236 28 31.2145 26.9006 33.4096 25.5567Z" fill="white"></path>
    <path d="M70.2111 57.5647C68.6155 56.2172 63.3025 51.9149 58.4046 48.0035L49.4996 40.8922L46.7223 42.4937C45.1945 43.3744 43.8043 44.0952 43.6317 44.0952C43.4591 44.0952 44.4928 40.3738 45.9276 35.8259L48.5368 27.556L50.151 29.525C51.0387 30.6075 55.1136 35.9195 59.2065 41.3294C63.2994 46.7382 68.1675 53.0386 70.0251 55.3292C74.5645 60.9275 74.5922 61.2627 70.2111 57.5641V57.5647ZM85.864 49.7814C86.9222 46.4847 89.0347 39.679 90.5584 34.6569L93.3274 25.5261L92.2435 23.2849C91.6475 22.0524 91.0403 20.7934 90.8939 20.4869C90.7398 20.1642 91.9851 20.0991 93.8591 20.3328C97.0319 20.7278 97.1522 20.6846 100.477 17.961C106.007 13.4307 107.28 12.472 106.952 13.0857C106.78 13.4057 105.594 15.6037 104.316 17.9703C102.993 20.4206 101.686 22.8795 100.394 25.3471C99.5158 27.0371 96.6544 32.4313 94.0343 37.3337C91.4153 42.2355 88.1634 48.3902 86.8082 51.0108C85.4535 53.6309 84.2534 55.7747 84.1419 55.7747C84.031 55.7747 84.8057 53.0776 85.864 49.7814ZM28.7854 41.8717C33.8868 30.3244 34.438 29.3449 35.8441 29.3152C36.5566 29.3006 39.0976 29.0482 41.491 28.7541C43.8845 28.4601 45.9035 28.2831 45.9774 28.3601C46.0514 28.4382 44.4989 29.7061 42.5272 31.1796C39.471 33.4629 39.1089 33.9225 40.0716 34.2972C44.109 35.8706 44.1367 35.5557 39.6724 38.804L35.5395 41.8108L37.7896 43.8162L40.0408 45.8216L38.01 46.1652C36.8931 46.3546 33.7337 46.8839 30.9893 47.342L26 48.1747L28.7854 41.8717ZM57.8687 34.2785C54.961 30.2115 52.6513 26.8835 52.7366 26.8835C52.8219 26.8835 54.8305 27.5825 57.1999 28.4372L61.508 29.9903L68.748 21.8292C77.5354 11.9239 84.6531 4.22763 84.2555 5.06196C84.0942 5.40027 81.8101 9.41055 79.1788 13.9751C75.8282 19.8017 72.4999 25.6413 69.1939 31.4939C66.3335 36.5649 63.8049 40.9302 63.5742 41.1941C63.3441 41.458 60.7765 38.346 57.8687 34.2785ZM72.638 31.2826L77.1341 22.181L82.6079 21.4487C85.6184 21.0458 88.1768 20.8174 88.2934 20.9407C88.4095 21.0641 87.0651 22.1779 85.305 23.4161C83.545 24.6538 82.1055 25.9186 82.1055 26.2267C82.1055 26.5338 82.8854 26.9673 83.8394 27.1896C84.7928 27.4113 85.6934 27.7985 85.8403 28.0504C85.9873 28.3023 84.4327 29.6743 82.386 31.1004C80.3398 32.526 78.53 33.924 78.3645 34.2077C78.1996 34.4908 79.1089 35.4891 80.3855 36.4265C81.6622 37.3639 82.6269 38.2154 82.5293 38.3184C82.4317 38.4215 79.8816 38.7999 76.8619 39.159C73.8422 39.5181 70.6447 39.9408 69.757 40.0979C68.1567 40.3816 68.1824 40.3025 72.638 31.2826Z" fill="black"></path>
  </symbol>

  <symbol fill="none" xmlns="http://www.w3.org/2000/svg" viewBox="0 0 114 36" id="first-slider-8">
    <path d="M20.5299 30.663C20.0853 30.3334 20.0952 30.2474 20.971 26.7411C21.4634 24.7692 21.9177 22.5293 21.9803 21.7635L22.0943 20.3713L20.9208 22.6802C18.8308 26.7927 17.2918 28.7897 15.3 29.9737C14.0519 30.7155 11.7393 30.9654 10.1902 30.5254C7.03226 29.6288 5.90495 25.3426 8.25048 23.15C9.66297 21.8297 13.7029 22.3585 13.2503 23.8047C13.1012 24.2812 12.979 24.3197 12.058 24.1797C11.1602 24.0431 10.9561 24.0999 10.429 24.6347C9.96276 25.1076 9.82617 25.4869 9.82617 26.3105C9.82617 27.2057 9.94133 27.4729 10.5508 27.9931C11.8006 29.0596 13.7205 28.7097 15.2673 27.1335C16.336 26.0449 18.1752 22.6164 20.5301 17.324C22.9769 11.8248 24.4495 8.85618 25.7287 6.84508C26.888 5.02219 27.0722 4.86789 27.8512 5.06614C28.7333 5.29066 28.7795 6.09653 28.0097 7.84012C26.5578 11.1286 25.5144 14.9936 25.2386 18.1022L25.0799 19.8936L27.3816 16.5497C30.3029 12.3061 31.9912 10.1818 34.6429 7.41377C36.3351 5.64726 36.8935 5.20443 37.4297 5.20443C38.273 5.20443 38.5252 5.79439 38.034 6.61793C37.8319 6.9571 36.6382 8.95434 35.3816 11.0562C30.7237 18.8469 28.6151 24.5662 29.3624 27.3812C29.684 28.5927 30.2259 28.7866 31.544 28.163C32.9817 27.4827 33.7098 26.723 34.5595 25.0159C36.1133 21.8939 39.1952 19.5353 41.7209 19.5353C42.3836 19.5353 43.1379 19.6858 43.3967 19.8697C43.8003 20.1563 43.9319 20.1563 44.3184 19.8697C44.9059 19.4338 45.9581 19.4419 46.3206 19.885C46.553 20.169 46.363 20.7181 45.3077 22.8109C44.5932 24.2277 43.7636 25.8363 43.464 26.3857C43.1647 26.9348 42.9921 27.4576 43.0806 27.5475C43.6197 28.0942 46.054 25.4685 48.5323 21.6677C49.3891 20.3538 49.3957 20.3259 49.0415 19.466C48.5811 18.3487 48.5804 16.1296 49.0398 15.2282C49.426 14.471 50.4759 13.803 51.2794 13.803C51.5549 13.803 52.0902 14.117 52.4686 14.5011C53.0308 15.0712 53.157 15.4016 53.157 16.302C53.157 16.9333 52.9556 17.8048 52.686 18.3411C52.0659 19.5738 52.0796 19.6201 53.014 19.4663C53.981 19.3072 54.8054 19.8131 54.8054 20.5657C54.8054 20.8557 54.0575 22.0537 53.1365 23.2391C50.0197 27.2506 49.5165 29.2626 51.8806 28.2607C53.4212 27.6079 54.2012 26.8288 57.8681 22.2806C60.5386 18.9683 61.5599 17.8634 61.9508 17.8634C62.5528 17.8634 63.5188 18.4837 63.5188 18.8703C63.5188 19.0151 63.0779 19.7261 62.5389 20.4501L61.5587 21.7666L61.8715 22.8605C62.0434 23.462 62.2301 24.4107 62.2864 24.9691C62.3427 25.5275 62.4407 25.9842 62.5042 25.9842C62.5678 25.9842 63.2298 25.5502 63.9756 25.0197C65.0572 24.2499 65.4536 23.7794 65.9363 22.691C68.5765 16.7384 70.6688 12.1635 70.9571 11.713C71.364 11.0772 72.7115 10.9683 73.1743 11.5339C73.4868 11.9161 73.4814 11.9316 70.9689 17.9293L69.8903 20.5029L70.9053 19.8998C72.0185 19.2382 72.8844 19.1345 73.4522 19.595C73.9872 20.0288 74.3574 21.3515 74.1909 22.2343C74.0407 23.0316 72.9296 25.3766 71.8769 27.1187C71.5107 27.7247 71.3777 28.1338 71.547 28.1338C72.1826 28.1338 73.8445 26.4222 74.4721 25.1212C75.2968 23.4111 77.846 20.7678 79.4147 19.9956C80.9018 19.2635 82.7846 19.204 83.5064 19.8666C83.9331 20.2583 84.0151 20.2688 84.1368 19.9478C84.4335 19.1634 86.5973 19.2902 86.5973 20.0921C86.5973 20.2733 85.8554 21.8739 84.9488 23.6485C84.0421 25.4231 83.3003 27.108 83.3003 27.3927C83.3003 28.3058 83.9463 28.2298 85.1939 27.1703C86.1524 26.3566 86.6114 25.6837 87.5329 23.7421C89.8254 18.9114 93.3056 14.4615 96.485 12.2949C98.3362 11.0335 100.02 11.1646 100.02 12.57C100.02 13.3162 98.4954 16.6512 97.4486 18.1944C96.3788 19.7713 93.984 22.0439 91.7614 23.5914C89.3184 25.292 89.2256 25.3995 89.0462 26.7256C88.8717 28.0185 89.4748 28.7701 90.4815 28.5138C91.5318 28.2463 93.6889 25.7539 95.0659 23.2174C96.8775 19.8792 97.7781 18.4612 99.2772 16.5846C100.847 14.6191 104.198 11.7575 105.186 11.5372C106.151 11.3223 106.822 11.5769 106.981 12.218C107.147 12.8891 106.214 15.5229 105.173 17.3238C104.193 19.0175 100.953 22.3145 98.5392 24.0734C96.6435 25.4549 96.2441 26.16 96.5827 27.5283C97.0198 29.2939 99.0295 28.5563 101.232 25.822C102.512 24.2337 102.712 24.0739 103.026 24.3918C103.535 24.9082 103.271 25.6214 101.875 27.4973C100.553 29.2734 98.7511 30.6401 97.4093 30.8846C95.9308 31.1541 94.3577 30.1084 93.8227 28.5C93.7803 28.3729 93.3826 28.6165 92.9387 29.0412C91.8224 30.1089 89.9799 31 88.8881 31C88.1918 31 87.8101 30.8335 87.2856 30.3018C86.9072 29.9178 86.5973 29.3804 86.5973 29.1076C86.5973 28.8348 86.5398 28.6115 86.4694 28.6115C86.399 28.6115 85.7897 29.034 85.1153 29.5502C83.0436 31.1361 81.962 31.2587 80.9725 30.0191L80.5759 29.5222L79.7599 30.0093C79.311 30.2768 78.4388 30.6102 77.8218 30.7497C76.515 31.0454 75.5276 30.732 74.6207 29.7341L74.0656 29.1236L73.1302 29.8108C71.7024 30.8598 70.7628 31.1065 69.9058 30.657C69.0197 30.1922 68.4625 29.4014 68.4698 28.6182C68.4729 28.2862 69.1087 26.7855 69.8828 25.2832C70.6566 23.7806 71.2901 22.4641 71.2901 22.3571C71.2901 21.8985 70.6161 22.2448 69.4238 23.3148C68.3172 24.3084 67.9684 24.8599 66.8185 27.4319C65.3003 30.8278 64.732 31.4094 63.5776 30.7485C62.9022 30.3616 62.7416 29.4974 63.1641 28.5186C63.292 28.2224 62.7736 28.4845 61.6536 29.2822C58.8329 31.2914 56.5606 31.4557 55.0014 29.7628L54.3719 29.0792L53.1167 29.8411C52.2195 30.3857 51.4786 30.6336 50.5173 30.71C49.2675 30.8096 49.1222 30.7659 48.4567 30.0909C47.9363 29.5631 47.7408 29.1403 47.7408 28.5425C47.7408 27.396 49.1321 24.6961 50.5588 23.075C51.3062 22.2254 51.6552 21.6575 51.4923 21.5552C51.1758 21.357 51.2897 21.2256 49.0403 24.3901C46.5589 27.8811 45.132 29.4143 43.6828 30.1468C42.2114 30.8904 41.2339 30.9274 40.5394 30.2655L40.0194 29.7702L39.0617 30.2655C37.8147 30.9109 36.1039 30.9176 35.0747 30.2813C34.6497 30.0181 34.2418 29.6445 34.1686 29.4511C34.0609 29.1668 33.8445 29.232 33.0476 29.7881C31.3709 30.9582 29.3348 31.2336 27.9028 30.4839C26.8077 29.9106 26.4024 27.4416 26.8501 24.0734L27.0248 22.7598L26.2877 24.0734C24.245 27.7158 21.8058 31 21.1431 31C21.0557 31 20.7797 30.8483 20.5299 30.663ZM58.9374 28.5026C59.4068 28.0266 59.5149 27.6786 59.512 26.6515C59.5085 25.1872 59.3081 24.2626 59.0156 24.3619C58.6007 24.5029 56.6894 27.0698 56.6894 27.4861C56.6894 27.9552 57.6888 29.089 58.1024 29.089C58.2437 29.089 58.6195 28.8251 58.9374 28.5026ZM79.6996 27.3017C81.6566 25.6025 83.0519 21.4437 81.7289 21.2526C79.9897 21.0014 76.6999 24.7921 76.6349 27.1223C76.5878 28.8014 77.8844 28.8774 79.6996 27.3014V27.3017ZM39.0631 27.6843C40.6579 26.6585 41.9719 24.5263 42.2423 22.5262C42.4024 21.3417 42.1062 21.031 41.0688 21.2949C38.9117 21.8442 35.675 26.7951 36.6745 28.0168C37.1139 28.5537 37.8764 28.4474 39.0631 27.6843ZM93.61 19.5948C95.2929 17.9147 97.7536 14.2804 97.2084 14.2804C97.0994 14.2804 96.1729 15.1775 95.1497 16.2741C93.3649 18.1863 91.09 21.4458 91.5401 21.4458C91.6587 21.4458 92.5904 20.613 93.61 19.5948ZM101.305 19.1768C102.465 18.0943 104.799 14.2804 104.301 14.2804C103.619 14.2804 98.843 20.4126 98.843 21.2875C98.843 21.4291 99.3394 21.0661 99.946 20.4804C100.397 20.0438 100.85 19.6092 101.305 19.1768ZM51.2457 17.3618C51.4741 16.698 51.2794 15.7135 50.9198 15.7135C50.6198 15.7135 50.3204 16.7919 50.4519 17.3995C50.648 18.3048 50.9264 18.2916 51.2459 17.3618H51.2457Z" fill="black"></path>
  </symbol>

  <symbol fill="none" xmlns="http://www.w3.org/2000/svg" viewBox="0 0 114 36" id="first-slider-9">
    <path d="M44.5462 9.54314C44.5462 9.54314 42.4345 9.13399 42.4226 6.37604C42.4105 3.61863 45.1747 3.5212 45.1433 3.50849C45.1116 3.49603 45.7702 3.49035 45.9967 3.54206C46.5846 3.67465 46.8073 3.7082 46.8073 3.7082L47.4167 3.81833L47.8683 3.88463L48.4047 3.96176L48.9209 4.00723L49.5717 4.09436L50.0885 4.12763L50.9499 4.18392L51.6443 4.22747L52.2752 4.25022C52.2752 4.25022 55.9562 4.27321 58.196 3.71876C60.8654 3.05633 60.1262 6.33112 58.827 6.78599C58.8173 6.78802 58.7308 20.2521 58.7308 20.2521L58.8589 20.4202L59.0045 20.553L59.1625 20.6865L59.3207 20.8293C59.3953 20.9065 59.7324 21.2382 59.7109 22.0254C59.6895 22.8126 59.2258 23.4771 58.6894 23.4439C58.1536 23.4103 57.1753 23.1984 57.1753 23.1984L56.86 23.1551L56.5248 23.1446H56.2288L55.925 23.1551C55.925 23.1551 54.7493 23.1835 54.2449 23.3635C54.0961 23.4171 53.8726 23.4414 53.8726 23.4414L53.5908 23.4311L53.3897 23.3873C53.3897 23.3873 52.6421 23.101 52.6325 21.9818C52.6225 20.8623 54.0005 20.3309 54.0005 20.3309V18.2375H50.8028V20.4199C50.8028 20.4199 51.8992 20.7625 51.8242 21.8589C51.749 22.9557 51.1557 23.4181 50.8557 23.4747C50.5505 23.5304 50.5089 23.4767 50.5089 23.4767L50.1401 23.3647L49.73 23.2773L49.4049 23.211C49.4049 23.211 47.9929 22.9036 46.8495 23.188L46.5656 23.244L46.3227 23.2876L46.1532 23.3211L45.9244 23.3541H45.7238L45.5027 23.3314C45.5027 23.3314 44.7356 23.244 44.7356 22.1478C44.7356 21.0511 46.0708 20.3513 46.0708 20.341C46.0901 19.8907 46.0823 17.9944 46.0823 17.9944L45.7546 17.9489C45.7546 17.9489 41.1726 18.0255 41.0028 13.2307C40.8884 9.9957 44.3155 9.62416 44.3254 9.622C44.4098 9.59951 44.5462 9.54326 44.5462 9.54326V9.54314ZM54.0322 8.24763C54.0322 8.24763 50.6521 8.42 50.6762 14.361C50.6762 14.3732 54.0558 14.361 54.0558 14.361L54.0322 8.24763H54.0322Z" fill="black"></path>
    <path d="M30.6814 4.49536C32.1429 4.51288 33.9991 4.00937 33.9991 4.00937L34.8682 3.83769L35.311 3.77664L35.8669 3.73093C35.8669 3.73093 41.3838 3.18824 41.3738 9.74172C41.3697 12.8209 37.2638 15.7522 37.2638 15.7522C37.2638 15.7522 37.0382 16.5512 37.8113 19.4825C38.5841 22.4141 39.8925 24.2292 39.8925 24.2292C39.8925 24.2292 40.7278 23.0001 42.8676 23.0132C43.6203 23.0178 47.2154 23.8535 46.9898 28.0164C46.7423 32.5654 42.7848 32.4999 42.775 32.4999C42.2696 32.4655 40.5787 32.8129 38.1332 30.2742C35.6652 27.7144 35.5243 26.4182 34.6429 24.7157C33.7613 23.0132 32.8191 18.8922 32.8191 18.8922L32.7648 18.625L32.6461 18.5902L32.5492 18.6008L32.4426 18.6143L31.5408 18.9724C31.5408 18.9724 31.4664 21.081 31.5408 21.1026C31.6155 21.1242 32.7648 21.4366 32.7547 22.5401C32.7425 23.8603 31.5731 23.8253 31.5731 23.8253C31.5731 23.8253 30.8326 23.8124 30.0052 23.5928C29.1778 23.3735 27.934 23.4781 27.934 23.4781C27.37 23.6742 26.6528 23.7418 26.5049 23.7538C26.377 23.7484 25.3813 23.6709 25.4096 22.6573C25.4419 21.5106 27 20.9523 27 20.9523L26.9897 14.8487C26.9897 14.8487 27 8.84909 26.9897 6.81255C24.8962 6.326 25.0274 4.845 25.0051 4.81023C24.9831 4.77544 24.9831 3.45518 26.0882 3.50117H26.2269L26.3227 3.51429C26.7926 3.63011 27.7923 4.46329 30.6814 4.49533L30.6814 4.49536ZM26.3227 3.51426L26.1522 3.50361L26.3227 3.51426ZM31.3899 7.63555V13.7498C31.3899 13.7498 32.5715 13.9453 34.2143 12.4865C34.7675 11.9956 35.3091 11.2593 35.3957 9.77642C35.4823 8.29295 34.7939 7.64622 34.0753 7.2399C33.3565 6.83412 32.4328 7.1249 32.4328 7.1249L32.2699 7.1813L32.1407 7.21635L31.992 7.26401L31.8432 7.3226L31.7121 7.39216L31.5954 7.44828L31.3899 7.63557V7.63555Z" fill="black"></path>
    <path d="M16.0651 3.50224C22.5391 3.65774 25.04 9.94751 24.9995 14.3535C24.9592 18.76 21.518 24.5712 15.9417 24.4993C10.3653 24.4281 6.92616 18.6542 7.0012 14.015C7.07677 9.37601 10.4275 3.36699 16.0651 3.50224ZM16.0089 6.97338C13.135 6.95257 13.2352 15.5991 16.0538 15.6879C18.7501 15.7719 19.181 6.99741 16.0089 6.97338Z" fill="black"></path>
    <path d="M95.3551 20.7656C95.3551 20.7656 94.0402 21.1327 94.0006 22.3557C93.9748 23.1512 94.7722 23.4117 94.7722 23.4117L94.9304 23.4699L95.1837 23.5L95.3527 23.4907L95.5841 23.4802L95.7549 23.4434L95.9602 23.4074L96.1426 23.3834L96.4595 23.3371L96.8237 23.3167L97.273 23.2977L97.7814 23.28L98.2792 23.2622L99.2969 23.2824L99.9033 23.2814L100.595 23.2946L101.407 23.3231L102.218 23.3789L102.897 23.4072L103.648 23.449L104.193 23.4847L104.606 23.4675L104.775 23.4435C104.775 23.4435 105.165 23.4807 105.534 22.3222C105.59 22.1482 106.801 18.8608 106.801 18.8608C106.801 18.8608 107.113 17.5833 105.975 17.3984C104.837 17.2136 104.316 18.8801 103.7 19.3813C103.654 19.4183 102.58 20.643 101.727 20.6414C100.866 20.6394 99.4763 20.6173 99.4763 20.6173L99.5313 15.5077L100.995 15.4923C100.995 15.4923 101.54 16.4086 102.364 16.397C103.188 16.3859 103.946 16.0204 103.994 15.2929C104.021 14.888 104.041 12.2407 104.041 12.2407C104.041 12.2407 104.072 11.0168 102.546 10.9277C101.772 10.883 101.326 11.3056 101.167 11.5489C101.159 11.5595 99.4812 11.5166 99.4812 11.5166L99.4762 8.34852L101.774 8.34554C101.774 8.34554 102.65 8.18715 104.057 9.64638C104.335 9.93251 104.972 11.0659 106.025 11.0062C107.08 10.9467 106.999 10.0941 106.999 10.0941L106.885 9.56597L106.734 9.11774L106.444 8.23395L106.307 7.79814L106.134 7.22693L105.973 6.67054L105.81 6.16703L105.684 5.73148L105.568 5.41891C105.568 5.41891 105.454 4.44336 104.332 4.56923C104.296 4.5727 103.518 4.63561 103.518 4.63561L102.863 4.65071L101.784 4.70967L100.946 4.73348L98.3885 4.68377L97.4802 4.62613L96.7407 4.54415L95.8697 4.5L95.286 4.52855C95.286 4.52855 94.3772 4.60761 94.3839 5.6342C94.3849 5.91743 95.05 6.41248 95.4085 6.85543C95.4478 6.90383 95.355 20.7656 95.355 20.7656" fill="black"></path>
    <path d="M87.4768 24.6435C87.4768 24.6435 86.532 24.0791 85.4789 24.0719C84.4261 24.065 81.6686 25.2324 81.64 28.4825C81.6109 31.7326 83.2265 32.4082 85.6105 32.4932C87.9949 32.5797 89.8732 31.8328 90.9097 30.5363C91.9459 29.2404 92.7526 27.1963 92.7949 25.4292C92.7949 25.4165 92.9564 15.4082 92.9564 15.4082C92.9564 15.4082 94.0448 14.8396 93.9986 13.7821C93.9518 12.725 93.3459 12.4264 92.9653 12.4193C92.5847 12.4121 92.1243 12.6626 92.1243 12.6626C92.1243 12.6626 91.0656 13.028 90.4057 12.9878C89.7458 12.9477 89.0482 12.7974 88.8351 12.7528C88.6374 12.7102 88.1396 12.5748 88.1396 12.5748L87.9756 12.5566L87.76 12.5269C87.76 12.5269 86.8824 12.5492 86.8798 13.6329C86.8757 14.7174 88.1209 15.3449 88.1209 15.3449L88.0746 18.2243C88.0746 18.2243 88.1382 18.9387 87.11 18.9599C86.0829 18.9814 85.4872 18.9296 84.5775 17.8839C83.6681 16.8381 83.5244 14.7227 83.5795 13.6266C83.6349 12.5302 84.0645 8.99665 86.8447 8.79162C88.0775 8.70163 89.1132 9.76637 89.1132 9.76637C89.1132 9.76637 90.1642 10.7463 90.8759 10.6506C91.5874 10.5548 92.2021 10.3071 92.2401 9.42925C92.2497 9.20882 92.2875 8.9328 91.8362 8.54312C91.7792 8.49471 91.1065 7.64653 91.4751 4.98566C91.6773 3.53014 90.0788 3.53426 89.9753 3.5172C89.8731 3.50015 89.3454 3.37905 88.0224 4.13832C87.9983 4.15067 87.6049 4.56101 85.7119 4.24481C85.6964 4.24224 82.7059 4.10199 80.4788 6.80773C79.9894 7.40243 78.2213 9.30211 78.0108 13.4936C77.8851 16.0004 78.8678 18.363 80.5134 20.37C80.9146 20.8574 82.8664 23.3842 87.4875 23.1354C87.5051 23.1334 87.4767 24.6435 87.4767 24.6435" fill="black"></path>
    <path d="M62.3543 20.677C62.3543 20.677 60.9882 21.1497 61.0001 22.278C61.0119 23.4058 61.9778 23.4063 61.9778 23.4063L62.1529 23.3914L62.4285 23.3238L62.617 23.2833C62.617 23.2833 64.6165 22.9887 65.7666 23.2964C65.7745 23.2984 65.9291 23.3259 65.9291 23.3259L66.1918 23.3794L66.3919 23.4321L66.6312 23.4745L66.8818 23.5L67.1206 23.4875C67.1206 23.4875 67.8619 23.339 67.8993 22.2935C67.9356 21.2477 67.0837 20.8958 67.0837 20.8958L67.0827 8.52943L67.1823 8.39365C67.1823 8.39365 67.7957 7.60695 68.8503 7.64715C69.9049 7.6879 70.5709 9.15319 70.5944 9.24904C70.6181 9.34409 71.3491 10.9732 71.3473 12.9558C71.3458 14.6525 70.5815 17.2165 70.5815 17.2165C70.5815 17.2165 70.1781 19.034 68.5886 21.5195C68.5825 21.528 68.4867 21.7102 68.4867 21.7102C68.4867 21.7102 68.2848 22.1428 68.2987 22.4822C68.3124 22.8214 68.4535 23.3919 69.167 23.3922C69.1785 23.3922 69.3789 23.3797 69.3789 23.3797L69.7177 23.3389L70.3314 23.2713L70.8466 23.2287L71.5366 23.2034H72.25L72.7399 23.2439L73.1417 23.2718L73.4552 23.2846L73.7316 23.3245L73.9317 23.3647L74.196 23.4201L74.4819 23.4481L74.747 23.4455L75.0229 23.4075C75.0229 23.4075 75.815 23.2552 75.8638 22.1434C75.9125 21.0322 75.0837 20.5551 74.7212 20.6933C74.7112 20.6969 74.4603 20.5423 73.4805 21.2209C73.476 21.223 73.3549 21.2886 73.3549 21.2886L73.204 21.3163H73.0532L72.9279 21.2764L72.8142 21.168L72.7397 21.032L72.7273 20.9217V20.7734L72.751 20.6502L72.8023 20.5573L72.89 20.434C72.89 20.434 75.5636 17.0263 75.9264 16.0362C76.2887 15.0455 76.8665 14.475 76.9924 12.019C77.1132 9.63127 75.7606 7.59514 75.7606 7.59514C75.7606 7.59514 74.2571 5.13513 72.3874 4.49833C70.5178 3.86208 70.8587 3.94247 69.5903 3.87485C68.7358 3.82789 67.1541 4.24334 66.2037 4.79677C66.1879 4.80765 66.0782 4.81141 66.0782 4.81141L65.9273 4.76932L65.6003 4.55263C65.6003 4.55263 63.7954 3.39907 62.7032 3.50715C61.6114 3.61468 61.0217 4.45866 61.0473 5.32655C61.0728 6.1939 61.5003 6.93824 62.3157 7.57857C62.3257 7.58726 62.3541 20.677 62.3541 20.677" fill="black"></path>
    <path d="M51.1474 23.5L50.7528 23.3776L50.3239 23.2852L49.9976 23.2184C49.9496 23.2079 49.5906 23.1339 49.0994 23.0931C48.5878 23.0504 47.9 23.0407 47.2644 23.1966L46.9919 23.2509L46.7542 23.2936L46.5925 23.3252L46.4075 23.3525H46.2621L46.0696 23.3319C46.0372 23.3209 45.9714 23.2919 45.9269 23.2549C45.8573 23.1966 45.7235 23.049 45.7235 22.6413C45.7235 22.3081 45.9309 21.9839 46.2319 21.7004C46.3743 21.5667 46.5188 21.4602 46.6297 21.3851C46.6851 21.3483 46.7311 21.3194 46.763 21.3C47.0516 21.1235 47.0535 20.8587 47.0535 20.8485C47.0733 20.3937 47.0637 18.0616 47.0637 18.0616L46.2977 17.9546L46.2629 17.9551C46.2008 17.9561 42.154 17.9983 42.0025 13.7191C41.9537 12.3388 42.6388 11.589 43.3726 11.1553C43.7469 10.9343 44.1297 10.8006 44.4234 10.7217C44.7294 10.6401 44.9479 10.6152 44.9503 10.6147C45.0552 10.5863 46.7515 9.91401 46.7515 9.91401C46.7515 9.91401 45.0536 9.54869 44.9069 9.48844C44.7431 9.42062 44.5238 9.30686 44.3051 9.1215C43.8829 8.76456 43.423 8.11282 43.4176 6.89068C43.4128 5.73825 43.9648 5.17649 44.5268 4.87224C44.818 4.71417 45.1149 4.62689 45.3412 4.57907C45.4531 4.555 45.5454 4.54124 45.6094 4.53341C45.6592 4.52693 45.7026 4.5153 45.7403 4.50018C45.7963 4.49816 45.8951 4.51393 45.9818 4.51555C46.1778 4.51909 46.3526 4.53124 46.4123 4.54499C47.0219 4.68307 47.2535 4.7171 47.2535 4.7171L47.8545 4.82627L48.3128 4.89383L48.86 4.97218L49.377 5.0184L50.0308 5.10568L50.5608 5.14052L51.4199 5.19645L52.1181 5.23993L52.7593 5.26345C52.7593 5.26345 53.695 5.26943 54.9064 5.20537C56.1288 5.14051 57.6371 5.0027 58.7784 4.71979C59.8554 4.45202 60.0072 4.92083 59.9997 5.34344C59.9888 5.99733 59.5527 6.69257 59.1511 6.83335C59.1511 6.83335 58.8322 7.1103 58.8282 7.44698L58.8237 7.87553L58.8117 9.40003L58.7793 14.0224L58.7338 20.9205L58.9921 21.2602L59.1766 21.4285L59.3407 21.5669L59.4743 21.689C59.4861 21.7014 59.5029 21.7192 59.5222 21.7444C59.545 21.7741 59.5742 21.8171 59.6028 21.8771C59.6577 21.9933 59.7203 22.1921 59.7115 22.5048C59.6925 23.203 59.3094 23.4499 59.19 23.4429C58.6789 23.4107 57.7309 23.204 57.7309 23.204L57.3767 23.1546L57.0113 23.1433H56.7021L56.3918 23.1538C56.3535 23.1553 56.066 23.1627 55.7214 23.1913C55.371 23.2205 54.8961 23.2754 54.5815 23.3883C54.5114 23.4129 54.3952 23.4313 54.3414 23.4383L54.136 23.4308L54.0257 23.4067C53.9861 23.3816 53.9079 23.3256 53.849 23.2597C53.7382 23.1346 53.5974 22.9014 53.5942 22.4707C53.5874 21.7568 54.5601 21.3256 54.6506 21.2904L54.9574 21.1718V18.243H50.8324V21.2845L51.1681 21.3896C51.2174 21.405 51.8976 21.6511 51.8516 22.3175C51.7887 23.2429 51.3124 23.4723 51.2733 23.4799C51.2195 23.4899 51.178 23.495 51.1451 23.4972L51.1471 23.4997L51.1474 23.5ZM53.8487 8.41197C53.4832 8.53789 53.0035 8.77486 52.5278 9.21989C51.5632 10.1218 50.6947 11.7979 50.7067 14.8667C50.7067 14.875 50.8259 15.3584 51.3161 15.3633L51.701 15.3648C52.0175 15.3651 52.4389 15.3648 52.8605 15.3638C53.7033 15.3623 55.0146 15.3576 55.0146 15.3576L54.987 8.25036C54.987 8.25036 54.2371 8.27736 53.8487 8.41167" fill="#FF8028"></path>
    <path d="M32.5033 4.25054C33.0951 4.13663 33.5383 4.02135 33.6267 3.9978L34.4648 3.83133L34.8806 3.77438L35.4256 3.72919C35.4256 3.72919 35.737 3.70018 36.1985 3.74645C36.6776 3.79436 37.307 3.92115 37.9293 4.2311C39.1313 4.82937 40.4012 6.15266 40.3966 9.24064C40.3931 12.0009 36.5881 14.7819 36.5105 14.8378L36.381 14.9306C36.381 14.9306 36.0398 15.973 36.8652 19.1163C37.6571 22.1312 38.9975 24.004 39.0175 24.0319L39.3919 24.5538C39.3919 24.5538 39.8153 23.9709 39.8886 23.895C39.9775 23.8036 40.1203 23.6743 40.323 23.5437C40.7261 23.2839 41.3809 23.0074 42.3547 23.0137C43.026 23.0172 46.1905 23.7795 45.991 27.4876C45.8774 29.5724 44.9385 30.5417 44.0593 31.0192C43.6062 31.2653 43.155 31.3864 42.814 31.4452C42.5302 31.4948 42.329 31.4997 42.2782 31.5C42.1493 31.4934 41.9524 31.5063 41.6932 31.4948C41.4555 31.4844 41.1581 31.4491 40.807 31.345C40.1059 31.1361 39.144 30.6372 37.9745 29.4182C36.7736 28.1675 36.1528 27.2404 35.7251 26.4299C35.2742 25.5745 35.0198 24.8257 34.5818 23.976C33.7407 22.3455 32.8164 18.3031 32.8102 18.2746L32.6988 17.7237L32.217 17.5824L32.0289 17.6035L31.8623 17.6243L30.6157 18.1215C30.6157 18.1215 30.5849 18.9851 30.5757 19.5196C30.5711 19.7914 30.569 20.0633 30.5725 20.2695C30.5744 20.3842 30.5782 20.4809 30.5838 20.5493C30.6176 20.9425 30.8893 21.0666 30.9504 21.0844C30.965 21.0885 31.0315 21.1071 31.1229 21.1454C31.2167 21.1854 31.3316 21.2437 31.4403 21.3248C31.6544 21.4838 31.8153 21.7007 31.8121 22.035C31.805 22.8367 31.1586 22.8263 31.1194 22.8249C31.1194 22.8249 30.43 22.8121 29.6627 22.6078C29.1934 22.4827 28.6308 22.4545 28.2083 22.4528C27.773 22.4513 27.3896 22.484 27.3896 22.484L27.3358 22.5032C26.8638 22.6678 26.249 22.7349 26.0565 22.7521C25.9884 22.7461 25.8235 22.7225 25.6802 22.642C25.548 22.5673 25.4358 22.4548 25.4436 22.1719C25.4642 21.4356 26.5956 20.9661 26.7067 20.9261L27.0282 20.81L27.0174 14.3484C27.0174 14.3484 27.0276 8.34715 27.0174 6.30949L27.0155 5.90973L26.6462 5.82376C25.7159 5.60636 25.3506 5.19018 25.1952 4.89721C25.1125 4.74141 25.0762 4.59601 25.0595 4.48813C25.0511 4.4331 25.0476 4.38737 25.0457 4.35506C25.0397 4.25074 25.0192 4.17135 25 4.11713C25.0105 4.02321 25.0757 3.93176 25.12 3.82415C25.1976 3.63495 25.3287 3.48791 25.6367 3.50078H25.7529C25.7859 3.51062 25.8595 3.53174 25.9016 3.55034C25.9765 3.58293 26.0617 3.62371 26.1601 3.66943C26.3758 3.76965 26.6492 3.89232 27.0017 4.01225C27.7162 4.25512 28.7319 4.47854 30.2156 4.49525C30.9732 4.50401 31.8329 4.37942 32.5034 4.25046L32.5033 4.25054ZM30.453 13.668C30.453 13.668 30.9575 13.7636 31.1505 13.7578C31.31 13.7523 31.5431 13.7285 31.8356 13.6502C32.4066 13.4972 33.1738 13.145 34.0444 12.3683C34.6846 11.7982 35.2934 10.9393 35.3883 9.30656C35.4891 7.57117 34.6489 6.76646 33.8249 6.29907C33.3561 6.03293 32.8451 6.0061 32.4839 6.03047C32.103 6.05701 31.8232 6.14712 31.8232 6.14712L31.6699 6.20078L31.5466 6.23393L31.3741 6.29006L31.1878 6.36317L31.0418 6.44094L30.8721 6.52361L30.453 6.9064V13.668V13.668Z" fill="#FF8028"></path>
    <path d="M23.9995 14.8488C23.9613 19.0722 20.6664 24.5668 15.4471 24.4994C10.2201 24.4325 6.92934 18.9678 7.00115 14.5237C7.07322 10.0377 10.2974 4.3753 15.5546 4.50209C21.6319 4.64832 24.0386 10.5708 23.9995 14.8488ZM12.9512 11.7959C12.9687 13.8784 13.6654 16.6201 15.54 16.6795C19.1573 16.7925 18.9619 7.01134 15.5117 6.98516C13.5837 6.97088 12.9343 9.72587 12.9512 11.7959" fill="#FF8028"></path>
    <path d="M62.3316 13.6304L62.3191 9.12961L62.3136 7.64446L62.3111 7.22615C62.3087 6.86077 62.1315 6.69028 62.1294 6.68839C61.3961 6.1099 61.0669 5.4869 61.0472 4.81477C61.0299 4.2219 61.4228 3.59076 62.2784 3.50552C63.183 3.41567 64.834 4.45156 64.884 4.4836L65.2619 4.73443L65.565 4.82019C65.565 4.82019 65.9049 4.75994 65.9494 4.72899C66.8344 4.21159 68.3128 3.8329 69.0647 3.8747C69.3777 3.89127 69.5911 3.89889 69.7643 3.91083C69.9151 3.92114 70.0306 3.93445 70.1621 3.96349C70.4591 4.02945 70.8278 4.16627 71.7322 4.47546C73.4133 5.05096 74.8328 7.35429 74.8482 7.379C74.8482 7.379 75.1641 7.86056 75.4624 8.61032C75.7683 9.37801 76.0482 10.4039 75.993 11.4935C75.9333 12.6784 75.7659 13.3823 75.5815 13.8992C75.3775 14.4709 75.1442 14.8601 74.964 15.3542C74.6392 16.2454 72.053 19.5713 72.0142 19.6213L71.9029 19.7773L71.7984 19.9685L71.7502 20.2215L71.7505 20.4489L71.7764 20.6922L71.9367 20.9859L72.18 21.2183L72.4655 21.3105H72.7216L72.977 21.2636L73.1847 21.1496C73.649 20.8266 73.9258 20.7145 74.0405 20.6854C74.068 20.6789 74.0853 20.674 74.0971 20.6748C74.2718 20.6892 74.3425 20.6602 74.3532 20.6558C74.4132 20.6757 74.53 20.7413 74.6055 20.8157C74.7492 20.9569 74.8886 21.2107 74.8708 21.6182C74.8524 22.03 74.7071 22.2146 74.6044 22.3039C74.5465 22.3544 74.4897 22.385 74.4488 22.4021L74.1812 22.4474L73.9727 22.449L73.7336 22.4259L73.4921 22.3754L73.2805 22.333L72.972 22.2885L72.6381 22.2739L72.2499 22.2467L71.751 22.206L71.0156 22.2055L70.3122 22.2315L69.7836 22.275L69.1661 22.3437L68.839 22.3827L68.6554 22.3936C68.334 22.389 68.2707 22.2022 68.2607 21.9585C68.2531 21.7684 68.3909 21.4495 68.3998 21.431C68.4183 21.393 68.4605 21.3105 68.4637 21.3061C70.0031 18.8874 70.4643 17.0665 70.5146 16.852C70.5458 16.7467 70.7228 16.1327 70.8996 15.3392C71.0916 14.4795 71.2932 13.3673 71.2945 12.4576C71.2955 11.4033 71.1026 10.451 70.9098 9.75446C70.7278 9.0959 70.5416 8.67106 70.53 8.62409C70.4978 8.49162 69.7462 6.70787 68.3673 6.65466C67.7296 6.63023 67.2257 6.85772 66.8857 7.08764C66.715 7.2022 66.584 7.31893 66.4934 7.40878C66.3926 7.50922 66.3368 7.58305 66.3368 7.58305L66.1343 7.8594L66.1348 20.7184C66.1348 20.7184 66.4557 20.8693 66.496 20.8951C66.5502 20.9291 66.6225 20.9817 66.6932 21.0561C66.8275 21.1981 66.9593 21.418 66.9467 21.7725C66.9331 22.1517 66.8016 22.3176 66.7131 22.3969C66.662 22.4419 66.6117 22.4693 66.5759 22.4848L66.3978 22.5L66.2021 22.4796L65.9979 22.4433L65.8041 22.3922L65.5262 22.3352L65.3761 22.3078C64.736 22.1397 63.9037 22.1416 63.2647 22.1764C62.6023 22.213 62.0744 22.292 62.0744 22.292L61.8675 22.3363L61.6192 22.3974L61.5013 22.4074C61.417 22.4034 61.0061 22.3539 61 21.7703C60.9924 21.0661 61.9329 20.6809 62.029 20.6475L62.348 20.5368L62.3318 13.6303L62.3316 13.6304Z" fill="#FF8028"></path>
    <path d="M87.4492 24.3964C87.4517 24.2054 87.4537 24.0144 87.4537 23.871C87.4542 23.316 86.9649 23.1327 86.9476 23.1344C84.7344 23.2538 83.194 22.7055 82.1586 22.089C81.6384 21.7791 81.2429 21.4493 80.9552 21.1691C80.8116 21.0296 80.6939 20.9018 80.6009 20.795C80.5053 20.6847 80.4347 20.596 80.3865 20.5377C78.8051 18.5999 77.8933 16.3608 78.01 14.0195C78.1115 11.9983 78.5848 10.5461 79.0816 9.53483C79.3304 9.02837 79.5866 8.62899 79.8098 8.32071C80.0392 8.0039 80.2336 7.78178 80.3516 7.63782C81.3864 6.37553 82.5981 5.77658 83.5573 5.4928C84.0349 5.35132 84.4483 5.28884 84.7437 5.26214C84.8875 5.24864 85.0026 5.24426 85.0822 5.24287C85.1227 5.24287 85.1456 5.23927 85.1462 5.23979C86.1179 5.40246 86.7406 5.38483 87.1439 5.30721C87.3466 5.26785 87.4971 5.21363 87.6082 5.15721C87.6801 5.12033 87.719 5.0873 87.7248 5.08427C88.3532 4.72149 88.7773 4.57864 89.0282 4.52799C89.1411 4.50543 89.2261 4.49883 89.2876 4.50017C89.3406 4.5012 89.3726 4.50872 89.3886 4.5117C89.4147 4.51583 89.5353 4.51887 89.6981 4.54421C89.8353 4.56538 89.9919 4.60311 90.1315 4.66917C90.377 4.7856 90.5534 4.96039 90.491 5.40932C90.1149 8.1376 90.7699 9.22042 91.0224 9.43539C91.1985 9.58898 91.2347 9.68037 91.2438 9.709C91.2489 9.72553 91.2515 9.74314 91.2523 9.769C91.2538 9.81716 91.2503 9.86204 91.2483 9.90416C91.2283 10.3718 90.9798 10.5576 90.2979 10.6501C89.8531 10.7098 89.0151 9.98452 88.912 9.89094C88.8865 9.86508 88.8164 9.79652 88.7088 9.70486C88.5796 9.59476 88.3932 9.44944 88.1638 9.30768C87.7123 9.02776 87.0526 8.73324 86.3094 8.78801C84.7006 8.90692 83.7811 10.0107 83.2766 11.1582C82.779 12.2906 82.653 13.5234 82.6242 14.0981C82.5694 15.1953 82.6919 17.5126 83.743 18.7265C84.7709 19.9144 85.5159 19.9857 86.6149 19.9632C87.2337 19.9502 87.6383 19.7179 87.8578 19.3626C87.959 19.1993 88.0024 19.0369 88.0205 18.9158C88.0338 18.8231 88.0338 18.7507 88.0322 18.7105L88.0836 15.5275L87.8104 15.389C87.7427 15.3546 86.8397 14.8485 86.8421 14.1342C86.8431 13.7709 86.9742 13.6561 87.0549 13.6038C87.1093 13.5686 87.1673 13.5487 87.2142 13.5377L87.414 13.5548L87.5493 13.5702C87.6663 13.6018 88.061 13.7081 88.2333 13.7452C88.4542 13.7917 89.1779 13.9473 89.8611 13.9891C90.2604 14.0136 90.7436 13.9173 91.0952 13.8289C91.4619 13.7378 91.7773 13.628 91.7773 13.628L91.8101 13.6101C91.8221 13.6035 92.1814 13.4163 92.4283 13.421C92.5732 13.4236 92.9653 13.525 92.9991 14.3051C93.0292 14.9916 92.2717 15.4301 92.2237 15.4556L91.9662 15.5908L91.8002 25.922C91.76 27.5611 91.0038 29.4945 90.0353 30.7111C89.1272 31.852 87.418 32.5762 85.1286 32.4936C82.8735 32.4124 81.5995 31.8426 81.6245 28.9894C81.6499 26.1141 84.0847 25.0699 84.9789 25.0762C85.4309 25.0788 85.8731 25.2036 86.2116 25.3346C86.5353 25.4601 87.4214 25.9859 87.4214 25.9859C87.4214 25.9859 87.4438 24.7753 87.4492 24.3966" fill="#FF8028"></path>
    <path d="M95.5007 13.3323C95.5104 11.5993 95.519 9.8644 95.5224 8.5598C95.5245 7.90697 95.5245 7.36158 95.5234 6.97801C95.5224 6.78372 95.5219 6.63088 95.5198 6.52528C95.5151 6.2159 95.4028 6.06199 95.3956 6.05354C95.2883 5.93106 95.1597 5.80515 95.0258 5.68028C94.9055 5.56783 94.7805 5.45643 94.6676 5.35031C94.5571 5.24551 94.4773 5.16341 94.4279 5.10058C94.4376 4.5552 94.9088 4.52827 94.9349 4.52669L95.5223 4.5L96.4222 4.54248L97.2143 4.62405L98.2115 4.68266L100.981 4.73282L101.898 4.70852L103.065 4.64912L103.768 4.63459L104.663 4.56701C105.107 4.52028 105.28 4.67024 105.354 4.7621C105.401 4.82176 105.43 4.88643 105.448 4.93816C105.459 4.97171 105.484 5.08628 105.484 5.08628L105.613 5.40727L105.745 5.83123L105.922 6.34123L106.092 6.88478L106.28 7.46052L106.429 7.90084L106.742 8.78861L106.896 9.21072L107 9.66161C106.995 9.69886 106.982 9.76271 106.959 9.80548C106.931 9.85695 106.836 10.0082 106.413 10.0306C106.029 10.0507 105.696 9.87332 105.393 9.60353C105.243 9.47022 105.112 9.32371 104.993 9.18459L104.826 8.98608C104.776 8.928 104.72 8.86254 104.662 8.80789C103.863 8.03838 103.189 7.67144 102.685 7.50249C102.433 7.41776 102.228 7.38371 102.075 7.37315C101.964 7.36525 101.884 7.36968 101.837 7.37363L98.9113 7.37808L98.9191 11.4928C98.9191 11.4928 99.8443 11.5147 100.297 11.5242L100.923 11.5363L101.134 11.5383C101.445 11.5393 101.6 11.3506 101.607 11.3422C101.698 11.2126 102.036 10.8815 102.673 10.9159C103.352 10.9523 103.6 11.2081 103.703 11.3757C103.764 11.4729 103.795 11.5703 103.808 11.6439C103.819 11.697 103.82 11.736 103.82 11.736C103.82 11.736 103.799 14.3574 103.77 14.7576C103.749 15.0567 103.361 15.4004 102.498 15.4115C101.915 15.4191 101.464 14.7634 101.443 14.732L101.298 14.5052L98.9775 14.5279L98.9072 20.5818C98.9072 20.5818 100.889 20.6111 101.818 20.613C102.454 20.6145 103.088 20.2115 103.5 19.8995C103.719 19.7337 103.909 19.5661 104.049 19.438C104.117 19.3747 104.172 19.3213 104.212 19.2823C104.441 19.1096 104.66 18.8322 104.822 18.6112C104.982 18.3945 105.146 18.1524 105.329 17.9318C105.686 17.4988 105.975 17.3196 106.312 17.3705C106.919 17.4621 106.847 18.035 106.808 18.2076C106.676 18.5405 105.507 21.4881 105.45 21.6528C105.267 22.1879 105.099 22.3817 105.032 22.4406C105.076 22.4445 105.139 22.4477 105.139 22.4477L105.031 22.4497L104.872 22.4711L104.475 22.4861L103.911 22.4513L103.098 22.4093L102.366 22.381L101.498 22.3256L100.614 22.2968L99.8624 22.2834L99.2059 22.2843L98.1098 22.2651L97.5611 22.2822L97.0137 22.3002L96.5261 22.3189L96.111 22.3413L95.7501 22.3899L95.5506 22.4142L95.312 22.4533L95.1572 22.4839L94.9441 22.4929L94.7999 22.5L94.6204 22.4802L94.4935 22.4371C94.4426 22.4218 93.9864 22.2492 94.0003 21.8588C94.0289 21.0367 95.0289 20.7379 95.0928 20.7213L95.4534 20.6276C95.4534 20.6276 95.4809 16.798 95.5006 13.3324" fill="#FF8028"></path>
  </symbol>


</svg>